<svg width="75" height="75" viewBox="0 0 75 75" fill="none" xmlns="http://www.w3.org/2000/svg">
<path d="M37 15.25C43.875 15.25 49.5 20.875 49.5 27.75C49.5 34.3125 42.9375 44.9375 37 52.4375C31.0625 44.625 24.5 34.3125 24.5 27.75C24.5 20.875 30.125 15.25 37 15.25ZM37 9C26.6875 9 18.25 17.4375 18.25 27.75C18.25 41.8125 37 62.125 37 62.125C37 62.125 55.75 41.5 55.75 27.75C55.75 17.4375 47.3125 9 37 9ZM37 21.5C33.5625 21.5 30.75 24.3125 30.75 27.75C30.75 31.1875 33.5625 34 37 34C40.4375 34 43.25 31.1875 43.25 27.75C43.25 24.3125 40.4375 21.5 37 21.5ZM62 62.125C62 69 50.75 74.625 37 74.625C23.25 74.625 12 69 12 62.125C12 58.0625 15.75 54.625 21.6875 52.125L23.5625 54.9375C20.4375 56.5 18.25 58.375 18.25 60.5625C18.25 64.9375 26.6875 68.375 37 68.375C47.3125 68.375 55.75 64.9375 55.75 60.5625C55.75 58.375 53.5625 56.5 50.125 54.9375L52 52.125C58.25 54.625 62 58.0625 62 62.125Z" fill="black"/>
</svg>
