<svg width="57" height="75" viewBox="0 0 57 75" fill="none" xmlns="http://www.w3.org/2000/svg">
<path d="M6.25 43.75H50L45.3125 29.6875H10.9375L6.25 43.75ZM45.3125 59.375C46.5557 59.375 47.748 58.8811 48.6271 58.0021C49.5061 57.123 50 55.9307 50 54.6875C50 53.4443 49.5061 52.252 48.6271 51.3729C47.748 50.4939 46.5557 50 45.3125 50C44.0693 50 42.877 50.4939 41.9979 51.3729C41.1189 52.252 40.625 53.4443 40.625 54.6875C40.625 55.9307 41.1189 57.123 41.9979 58.0021C42.877 58.8811 44.0693 59.375 45.3125 59.375ZM10.9375 59.375C12.1807 59.375 13.373 58.8811 14.2521 58.0021C15.1311 57.123 15.625 55.9307 15.625 54.6875C15.625 53.4443 15.1311 52.252 14.2521 51.3729C13.373 50.4939 12.1807 50 10.9375 50C9.6943 50 8.50201 50.4939 7.62294 51.3729C6.74386 52.252 6.25 53.4443 6.25 54.6875C6.25 55.9307 6.74386 57.123 7.62294 58.0021C8.50201 58.8811 9.6943 59.375 10.9375 59.375ZM49.75 28.125L56.25 46.875V71.875C56.25 72.7038 55.9208 73.4987 55.3347 74.0847C54.7487 74.6708 53.9538 75 53.125 75H50C49.1712 75 48.3763 74.6708 47.7903 74.0847C47.2042 73.4987 46.875 72.7038 46.875 71.875V68.75H9.375V71.875C9.375 72.7038 9.04576 73.4987 8.45971 74.0847C7.87366 74.6708 7.0788 75 6.25 75H3.125C2.2962 75 1.50134 74.6708 0.915291 74.0847C0.32924 73.4987 0 72.7038 0 71.875V46.875L6.5 28.125C7.125 26.3125 8.90625 25 10.9375 25H45.3125C47.3438 25 49.125 26.3125 49.75 28.125ZM28.125 0C34.75 0 41.0938 2.6875 45.7812 7.34375L41.3438 11.7812C37.8405 8.26473 33.0887 6.27639 28.125 6.25C23.1875 6.25 18.4062 8.28125 14.9062 11.7812L10.5 7.34375C15.1712 2.65921 21.5095 0.0182602 28.125 0V0ZM28.125 12.5C31.4375 12.5 34.5938 13.875 36.9375 16.1875L32.5 20.625C31.3438 19.4688 29.7812 18.75 28.125 18.75C26.5625 18.75 24.9063 19.4688 23.75 20.625L19.3125 16.1875C21.6562 13.875 24.8125 12.5 28.125 12.5Z" fill="black"/>
</svg>

