<svg width="57" height="69" viewBox="0 0 57 69" fill="none" xmlns="http://www.w3.org/2000/svg">
<path d="M28.125 0L0 12.5V31.25C0 48.5938 12 64.8125 28.125 68.75C44.25 64.8125 56.25 48.5938 56.25 31.25V12.5L28.125 0ZM28.125 6.8125L50 16.5625V31.9375C50 37.25 48.4375 42.6562 45.7812 47.4062C40.625 43.5625 32.0625 42.1875 28.125 42.1875C24.1875 42.1875 15.625 43.5625 10.4688 47.4062C7.8125 42.6562 6.25 37.25 6.25 31.9375V16.5625L28.125 6.8125ZM28.125 15.625C25.2242 15.625 22.4422 16.7773 20.391 18.8285C18.3398 20.8797 17.1875 23.6617 17.1875 26.5625C17.1875 29.4633 18.3398 32.2453 20.391 34.2965C22.4422 36.3477 25.2242 37.5 28.125 37.5C31.0258 37.5 33.8078 36.3477 35.859 34.2965C37.9102 32.2453 39.0625 29.4633 39.0625 26.5625C39.0625 23.6617 37.9102 20.8797 35.859 18.8285C33.8078 16.7773 31.0258 15.625 28.125 15.625ZM28.125 21.875C29.3682 21.875 30.5605 22.3689 31.4396 23.2479C32.3186 24.127 32.8125 25.3193 32.8125 26.5625C32.8125 27.8057 32.3186 28.998 31.4396 29.8771C30.5605 30.7561 29.3682 31.25 28.125 31.25C26.8818 31.25 25.6895 30.7561 24.8104 29.8771C23.9314 28.998 23.4375 27.8057 23.4375 26.5625C23.4375 25.3193 23.9314 24.127 24.8104 23.2479C25.6895 22.3689 26.8818 21.875 28.125 21.875ZM28.125 48.4375C33.0312 48.4375 39.5 50.3438 42.2813 52.625C38.4063 57.4375 33.4375 61.0938 28.125 62.5C22.8125 61.0938 17.8438 57.4375 13.9687 52.625C16.7812 50.3438 23.2188 48.4375 28.125 48.4375Z" fill="black"/>
</svg>
